<?xml version="1.0" encoding="utf-8"?>
<!-- Generator: Adobe Illustrator 16.0.4, SVG Export Plug-In . SVG Version: 6.00 Build 0)  -->
<!DOCTYPE svg PUBLIC "-//W3C//DTD SVG 1.1//EN" "http://www.w3.org/Graphics/SVG/1.1/DTD/svg11.dtd">
<svg version="1.1" id="Layer_1" xmlns="http://www.w3.org/2000/svg" xmlns:xlink="http://www.w3.org/1999/xlink" x="0px" y="0px"
	 width="32px" height="32px" viewBox="0 0 32 32" enable-background="new 0 0 32 32" xml:space="preserve">
<path fill="#ffffff" d="M27.043,17.574c-0.08,0.096-0.207,0.16-0.334,0.176c-0.016,0-0.032,0-0.048,0
	c-0.128,0-0.239-0.032-0.335-0.111l-11.01-9.181L4.306,17.639c-0.111,0.079-0.238,0.127-0.382,0.111
	c-0.127-0.016-0.254-0.08-0.334-0.176l-0.986-1.177c-0.175-0.207-0.144-0.541,0.063-0.716l11.44-9.531
	c0.668-0.557,1.75-0.557,2.418,0l3.883,3.246V6.293c0-0.286,0.223-0.509,0.509-0.509h3.056c0.285,0,0.509,0.223,0.509,0.509v6.492
	l3.484,2.896c0.206,0.175,0.238,0.509,0.063,0.716L27.043,17.574z M24.481,25.133c0,0.557-0.462,1.018-1.019,1.018h-6.109v-6.109
	H13.28v6.109H7.17c-0.557,0-1.019-0.461-1.019-1.018v-7.638c0-0.032,0.016-0.063,0.016-0.096l9.149-7.542l9.148,7.542
	c0.017,0.032,0.017,0.063,0.017,0.096V25.133z"/>
</svg>
